<svg height="1000" width="1000" xmlns="http://www.w3.org/2000/svg">
  <line x1="50" y1="950" x2="950" y2="950" style="stroke:white;stroke-width:2"/>
  <line x1="50" y1="50" x2="50" y2="950" style="stroke:white;stroke-width:2"/>

    <text x="25" y="950" fill="white" dominant-baseline="middle" text-anchor="middle">
      1187
    </text>
    <text x="25" y="860" fill="white" dominant-baseline="middle" text-anchor="middle">
      1371
    </text>
    <text x="25" y="770" fill="white" dominant-baseline="middle" text-anchor="middle">
      1555
    </text>
    <text x="25" y="680" fill="white" dominant-baseline="middle" text-anchor="middle">
      1739
    </text>
    <text x="25" y="590" fill="white" dominant-baseline="middle" text-anchor="middle">
      1923
    </text>
    <text x="25" y="500" fill="white" dominant-baseline="middle" text-anchor="middle">
      2107
    </text>
    <text x="25" y="410" fill="white" dominant-baseline="middle" text-anchor="middle">
      2291
    </text>
    <text x="25" y="320" fill="white" dominant-baseline="middle" text-anchor="middle">
      2475
    </text>
    <text x="25" y="230" fill="white" dominant-baseline="middle" text-anchor="middle">
      2659
    </text>
    <text x="25" y="140" fill="white" dominant-baseline="middle" text-anchor="middle">
      2843
    </text>
    <text x="25" y="50" fill="white" dominant-baseline="middle" text-anchor="middle">
      3028
    </text>

    <text x="50" y="975" fill="white" dominant-baseline="middle" text-anchor="middle">
      2024-08-26
    </text>
    <text x="140" y="975" fill="white" dominant-baseline="middle" text-anchor="middle">
      2024-09-05
    </text>
    <text x="230" y="975" fill="white" dominant-baseline="middle" text-anchor="middle">
      2024-09-16
    </text>
    <text x="320" y="975" fill="white" dominant-baseline="middle" text-anchor="middle">
      2024-09-27
    </text>
    <text x="410" y="975" fill="white" dominant-baseline="middle" text-anchor="middle">
      2024-10-08
    </text>
    <text x="500" y="975" fill="white" dominant-baseline="middle" text-anchor="middle">
      2024-10-19
    </text>
    <text x="590" y="975" fill="white" dominant-baseline="middle" text-anchor="middle">
      2024-10-29
    </text>
    <text x="680" y="975" fill="white" dominant-baseline="middle" text-anchor="middle">
      2024-11-09
    </text>
    <text x="770" y="975" fill="white" dominant-baseline="middle" text-anchor="middle">
      2024-11-20
    </text>
    <text x="860" y="975" fill="white" dominant-baseline="middle" text-anchor="middle">
      2024-12-01
    </text>
    <text x="950" y="975" fill="white" dominant-baseline="middle" text-anchor="middle">
      2024-12-12
    </text>

    <circle cx="950" cy="950" r="3" fill="white"/>
    <circle cx="941" cy="950" r="3" fill="white"/>
    <circle cx="933" cy="888" r="3" fill="white"/>
    <circle cx="925" cy="888" r="3" fill="white"/>
    <circle cx="916" cy="888" r="3" fill="white"/>
    <circle cx="908" cy="888" r="3" fill="white"/>
    <circle cx="900" cy="888" r="3" fill="white"/>
    <circle cx="891" cy="888" r="3" fill="white"/>
    <circle cx="883" cy="888" r="3" fill="white"/>
    <circle cx="875" cy="888" r="3" fill="white"/>
    <circle cx="866" cy="888" r="3" fill="white"/>
    <circle cx="858" cy="888" r="3" fill="white"/>
    <circle cx="850" cy="888" r="3" fill="white"/>
    <circle cx="841" cy="888" r="3" fill="white"/>
    <circle cx="833" cy="888" r="3" fill="white"/>
    <circle cx="825" cy="888" r="3" fill="white"/>
    <circle cx="816" cy="888" r="3" fill="white"/>
    <circle cx="808" cy="888" r="3" fill="white"/>
    <circle cx="800" cy="888" r="3" fill="white"/>
    <circle cx="791" cy="888" r="3" fill="white"/>
    <circle cx="783" cy="888" r="3" fill="white"/>
    <circle cx="775" cy="888" r="3" fill="white"/>
    <circle cx="766" cy="888" r="3" fill="white"/>
    <circle cx="758" cy="888" r="3" fill="white"/>
    <circle cx="750" cy="888" r="3" fill="white"/>
    <circle cx="741" cy="888" r="3" fill="white"/>
    <circle cx="733" cy="888" r="3" fill="white"/>
    <circle cx="725" cy="888" r="3" fill="white"/>
    <circle cx="716" cy="888" r="3" fill="white"/>
    <circle cx="708" cy="888" r="3" fill="white"/>
    <circle cx="700" cy="859" r="3" fill="white"/>
    <circle cx="691" cy="857" r="3" fill="white"/>
    <circle cx="683" cy="667" r="3" fill="white"/>
    <circle cx="675" cy="667" r="3" fill="white"/>
    <circle cx="666" cy="667" r="3" fill="white"/>
    <circle cx="658" cy="667" r="3" fill="white"/>
    <circle cx="650" cy="667" r="3" fill="white"/>
    <circle cx="641" cy="667" r="3" fill="white"/>
    <circle cx="633" cy="667" r="3" fill="white"/>
    <circle cx="625" cy="667" r="3" fill="white"/>
    <circle cx="616" cy="667" r="3" fill="white"/>
    <circle cx="608" cy="667" r="3" fill="white"/>
    <circle cx="600" cy="667" r="3" fill="white"/>
    <circle cx="591" cy="667" r="3" fill="white"/>
    <circle cx="583" cy="667" r="3" fill="white"/>
    <circle cx="575" cy="667" r="3" fill="white"/>
    <circle cx="566" cy="667" r="3" fill="white"/>
    <circle cx="558" cy="667" r="3" fill="white"/>
    <circle cx="549" cy="667" r="3" fill="white"/>
    <circle cx="541" cy="622" r="3" fill="white"/>
    <circle cx="533" cy="604" r="3" fill="white"/>
    <circle cx="524" cy="604" r="3" fill="white"/>
    <circle cx="516" cy="608" r="3" fill="white"/>
    <circle cx="508" cy="608" r="3" fill="white"/>
    <circle cx="499" cy="608" r="3" fill="white"/>
    <circle cx="491" cy="608" r="3" fill="white"/>
    <circle cx="483" cy="576" r="3" fill="white"/>
    <circle cx="474" cy="576" r="3" fill="white"/>
    <circle cx="466" cy="526" r="3" fill="white"/>
    <circle cx="458" cy="526" r="3" fill="white"/>
    <circle cx="449" cy="526" r="3" fill="white"/>
    <circle cx="441" cy="526" r="3" fill="white"/>
    <circle cx="433" cy="526" r="3" fill="white"/>
    <circle cx="424" cy="526" r="3" fill="white"/>
    <circle cx="416" cy="489" r="3" fill="white"/>
    <circle cx="408" cy="489" r="3" fill="white"/>
    <circle cx="399" cy="489" r="3" fill="white"/>
    <circle cx="391" cy="342" r="3" fill="white"/>
    <circle cx="383" cy="342" r="3" fill="white"/>
    <circle cx="374" cy="342" r="3" fill="white"/>
    <circle cx="366" cy="342" r="3" fill="white"/>
    <circle cx="358" cy="342" r="3" fill="white"/>
    <circle cx="349" cy="275" r="3" fill="white"/>
    <circle cx="341" cy="275" r="3" fill="white"/>
    <circle cx="333" cy="275" r="3" fill="white"/>
    <circle cx="324" cy="275" r="3" fill="white"/>
    <circle cx="316" cy="275" r="3" fill="white"/>
    <circle cx="308" cy="275" r="3" fill="white"/>
    <circle cx="299" cy="275" r="3" fill="white"/>
    <circle cx="291" cy="198" r="3" fill="white"/>
    <circle cx="283" cy="198" r="3" fill="white"/>
    <circle cx="274" cy="198" r="3" fill="white"/>
    <circle cx="266" cy="198" r="3" fill="white"/>
    <circle cx="258" cy="198" r="3" fill="white"/>
    <circle cx="249" cy="198" r="3" fill="white"/>
    <circle cx="241" cy="198" r="3" fill="white"/>
    <circle cx="233" cy="198" r="3" fill="white"/>
    <circle cx="224" cy="198" r="3" fill="white"/>
    <circle cx="216" cy="198" r="3" fill="white"/>
    <circle cx="208" cy="198" r="3" fill="white"/>
    <circle cx="199" cy="198" r="3" fill="white"/>
    <circle cx="191" cy="198" r="3" fill="white"/>
    <circle cx="183" cy="198" r="3" fill="white"/>
    <circle cx="174" cy="198" r="3" fill="white"/>
    <circle cx="166" cy="198" r="3" fill="white"/>
    <circle cx="158" cy="198" r="3" fill="white"/>
    <circle cx="149" cy="198" r="3" fill="white"/>
    <circle cx="141" cy="198" r="3" fill="white"/>
    <circle cx="133" cy="198" r="3" fill="white"/>
    <circle cx="124" cy="169" r="3" fill="white"/>
    <circle cx="116" cy="85" r="3" fill="white"/>
    <circle cx="108" cy="85" r="3" fill="white"/>
    <circle cx="99" cy="85" r="3" fill="white"/>
    <circle cx="91" cy="85" r="3" fill="white"/>
    <circle cx="83" cy="85" r="3" fill="white"/>
    <circle cx="74" cy="85" r="3" fill="white"/>
    <circle cx="66" cy="85" r="3" fill="white"/>
    <circle cx="58" cy="50" r="3" fill="white"/>
    <circle cx="50" cy="50" r="3" fill="white"/>

  </svg>
