<svg height="1000" width="1000" xmlns="http://www.w3.org/2000/svg" font-family="Arial" style="background-color: #333333">
  <text x="500" y="50" fill="white" dominant-baseline="middle" text-anchor="middle" font-size="40">
    Legacy JS Lines of Code
  </text>

    <line x1="100" y1="900" x2="950" y2="900" style="stroke:white;stroke-width:2"/>

      <text x="100.0" y="925.0" fill="white" dominant-baseline="middle" text-anchor="middle">
        2024-08-26
      </text>
      <text x="241.0" y="925.0" fill="white" dominant-baseline="middle" text-anchor="middle">
        2024-09-13
      </text>
      <text x="383.0" y="925.0" fill="white" dominant-baseline="middle" text-anchor="middle">
        2024-10-01
      </text>
      <text x="525.0" y="925.0" fill="white" dominant-baseline="middle" text-anchor="middle">
        2024-10-19
      </text>
      <text x="666.0" y="925.0" fill="white" dominant-baseline="middle" text-anchor="middle">
        2024-11-06
      </text>
      <text x="808.0" y="925.0" fill="white" dominant-baseline="middle" text-anchor="middle">
        2024-11-24
      </text>
      <text x="950.0" y="925.0" fill="white" dominant-baseline="middle" text-anchor="middle">
        2024-12-12
      </text>
    <line x1="100" y1="100" x2="100" y2="900" style="stroke:white;stroke-width:2"/>

      <text x="75.0" y="100.0" fill="white" dominant-baseline="middle" text-anchor="middle">
        3028
      </text>
      <text x="75.0" y="188.0" fill="white" dominant-baseline="middle" text-anchor="middle">
        2823
      </text>
      <text x="75.0" y="277.0" fill="white" dominant-baseline="middle" text-anchor="middle">
        2618
      </text>
      <text x="75.0" y="366.0" fill="white" dominant-baseline="middle" text-anchor="middle">
        2414
      </text>
      <text x="75.0" y="455.0" fill="white" dominant-baseline="middle" text-anchor="middle">
        2209
      </text>
      <text x="75.0" y="544.0" fill="white" dominant-baseline="middle" text-anchor="middle">
        2005
      </text>
      <text x="75.0" y="633.0" fill="white" dominant-baseline="middle" text-anchor="middle">
        1800
      </text>
      <text x="75.0" y="722.0" fill="white" dominant-baseline="middle" text-anchor="middle">
        1596
      </text>
      <text x="75.0" y="811.0" fill="white" dominant-baseline="middle" text-anchor="middle">
        1391
      </text>
      <text x="75.0" y="900.0" fill="white" dominant-baseline="middle" text-anchor="middle">
        1187
      </text>

    <text x="525.0" y="975.0" fill="white" dominant-baseline="middle" text-anchor="middle" font-size="30">
      Date
    </text>

    <text x="25.0" y="500.0" fill="white" dominant-baseline="middle" text-anchor="middle" font-size="30" transform="rotate(-90 25.0 500.0)">
      Lines of Code
    </text>

      <line x1="100.0" y1="900" x2="100.0" y2="910" style="stroke:white;stroke-width:2"/>
      <line x1="100.0" y1="100" x2="100.0" y2="900" style="stroke:white;stroke-width:1"/>
      <line x1="241.0" y1="900" x2="241.0" y2="910" style="stroke:white;stroke-width:2"/>
      <line x1="241.0" y1="100" x2="241.0" y2="900" style="stroke:white;stroke-width:1"/>
      <line x1="383.0" y1="900" x2="383.0" y2="910" style="stroke:white;stroke-width:2"/>
      <line x1="383.0" y1="100" x2="383.0" y2="900" style="stroke:white;stroke-width:1"/>
      <line x1="525.0" y1="900" x2="525.0" y2="910" style="stroke:white;stroke-width:2"/>
      <line x1="525.0" y1="100" x2="525.0" y2="900" style="stroke:white;stroke-width:1"/>
      <line x1="666.0" y1="900" x2="666.0" y2="910" style="stroke:white;stroke-width:2"/>
      <line x1="666.0" y1="100" x2="666.0" y2="900" style="stroke:white;stroke-width:1"/>
      <line x1="808.0" y1="900" x2="808.0" y2="910" style="stroke:white;stroke-width:2"/>
      <line x1="808.0" y1="100" x2="808.0" y2="900" style="stroke:white;stroke-width:1"/>
      <line x1="950.0" y1="900" x2="950.0" y2="910" style="stroke:white;stroke-width:2"/>
      <line x1="950.0" y1="100" x2="950.0" y2="900" style="stroke:white;stroke-width:1"/>



      <line x1="100" y1="100" x2="107" y2="100" style="stroke:white;stroke-width:2"/>
      <line x1="107" y1="100" x2="115" y2="131" style="stroke:white;stroke-width:2"/>
      <line x1="115" y1="131" x2="123" y2="131" style="stroke:white;stroke-width:2"/>
      <line x1="123" y1="131" x2="131" y2="131" style="stroke:white;stroke-width:2"/>
      <line x1="131" y1="131" x2="139" y2="131" style="stroke:white;stroke-width:2"/>
      <line x1="139" y1="131" x2="147" y2="131" style="stroke:white;stroke-width:2"/>
      <line x1="147" y1="131" x2="155" y2="131" style="stroke:white;stroke-width:2"/>
      <line x1="155" y1="131" x2="162" y2="131" style="stroke:white;stroke-width:2"/>
      <line x1="162" y1="131" x2="170" y2="206" style="stroke:white;stroke-width:2"/>
      <line x1="170" y1="206" x2="178" y2="232" style="stroke:white;stroke-width:2"/>
      <line x1="178" y1="232" x2="186" y2="232" style="stroke:white;stroke-width:2"/>
      <line x1="186" y1="232" x2="194" y2="232" style="stroke:white;stroke-width:2"/>
      <line x1="194" y1="232" x2="202" y2="232" style="stroke:white;stroke-width:2"/>
      <line x1="202" y1="232" x2="210" y2="232" style="stroke:white;stroke-width:2"/>
      <line x1="210" y1="232" x2="218" y2="232" style="stroke:white;stroke-width:2"/>
      <line x1="218" y1="232" x2="225" y2="232" style="stroke:white;stroke-width:2"/>
      <line x1="225" y1="232" x2="233" y2="232" style="stroke:white;stroke-width:2"/>
      <line x1="233" y1="232" x2="241" y2="232" style="stroke:white;stroke-width:2"/>
      <line x1="241" y1="232" x2="249" y2="232" style="stroke:white;stroke-width:2"/>
      <line x1="249" y1="232" x2="257" y2="232" style="stroke:white;stroke-width:2"/>
      <line x1="257" y1="232" x2="265" y2="232" style="stroke:white;stroke-width:2"/>
      <line x1="265" y1="232" x2="273" y2="232" style="stroke:white;stroke-width:2"/>
      <line x1="273" y1="232" x2="281" y2="232" style="stroke:white;stroke-width:2"/>
      <line x1="281" y1="232" x2="288" y2="232" style="stroke:white;stroke-width:2"/>
      <line x1="288" y1="232" x2="296" y2="232" style="stroke:white;stroke-width:2"/>
      <line x1="296" y1="232" x2="304" y2="232" style="stroke:white;stroke-width:2"/>
      <line x1="304" y1="232" x2="312" y2="232" style="stroke:white;stroke-width:2"/>
      <line x1="312" y1="232" x2="320" y2="232" style="stroke:white;stroke-width:2"/>
      <line x1="320" y1="232" x2="328" y2="232" style="stroke:white;stroke-width:2"/>
      <line x1="328" y1="232" x2="336" y2="300" style="stroke:white;stroke-width:2"/>
      <line x1="336" y1="300" x2="343" y2="300" style="stroke:white;stroke-width:2"/>
      <line x1="343" y1="300" x2="351" y2="300" style="stroke:white;stroke-width:2"/>
      <line x1="351" y1="300" x2="359" y2="300" style="stroke:white;stroke-width:2"/>
      <line x1="359" y1="300" x2="367" y2="300" style="stroke:white;stroke-width:2"/>
      <line x1="367" y1="300" x2="375" y2="300" style="stroke:white;stroke-width:2"/>
      <line x1="375" y1="300" x2="383" y2="300" style="stroke:white;stroke-width:2"/>
      <line x1="383" y1="300" x2="391" y2="360" style="stroke:white;stroke-width:2"/>
      <line x1="391" y1="360" x2="399" y2="360" style="stroke:white;stroke-width:2"/>
      <line x1="399" y1="360" x2="406" y2="360" style="stroke:white;stroke-width:2"/>
      <line x1="406" y1="360" x2="414" y2="360" style="stroke:white;stroke-width:2"/>
      <line x1="414" y1="360" x2="422" y2="360" style="stroke:white;stroke-width:2"/>
      <line x1="422" y1="360" x2="430" y2="491" style="stroke:white;stroke-width:2"/>
      <line x1="430" y1="491" x2="438" y2="491" style="stroke:white;stroke-width:2"/>
      <line x1="438" y1="491" x2="446" y2="491" style="stroke:white;stroke-width:2"/>
      <line x1="446" y1="491" x2="454" y2="523" style="stroke:white;stroke-width:2"/>
      <line x1="454" y1="523" x2="462" y2="523" style="stroke:white;stroke-width:2"/>
      <line x1="462" y1="523" x2="469" y2="523" style="stroke:white;stroke-width:2"/>
      <line x1="469" y1="523" x2="477" y2="523" style="stroke:white;stroke-width:2"/>
      <line x1="477" y1="523" x2="485" y2="523" style="stroke:white;stroke-width:2"/>
      <line x1="485" y1="523" x2="493" y2="523" style="stroke:white;stroke-width:2"/>
      <line x1="493" y1="523" x2="501" y2="568" style="stroke:white;stroke-width:2"/>
      <line x1="501" y1="568" x2="509" y2="568" style="stroke:white;stroke-width:2"/>
      <line x1="509" y1="568" x2="517" y2="596" style="stroke:white;stroke-width:2"/>
      <line x1="517" y1="596" x2="525" y2="596" style="stroke:white;stroke-width:2"/>
      <line x1="525" y1="596" x2="532" y2="596" style="stroke:white;stroke-width:2"/>
      <line x1="532" y1="596" x2="540" y2="596" style="stroke:white;stroke-width:2"/>
      <line x1="540" y1="596" x2="548" y2="592" style="stroke:white;stroke-width:2"/>
      <line x1="548" y1="592" x2="556" y2="592" style="stroke:white;stroke-width:2"/>
      <line x1="556" y1="592" x2="564" y2="608" style="stroke:white;stroke-width:2"/>
      <line x1="564" y1="608" x2="572" y2="649" style="stroke:white;stroke-width:2"/>
      <line x1="572" y1="649" x2="580" y2="649" style="stroke:white;stroke-width:2"/>
      <line x1="580" y1="649" x2="587" y2="649" style="stroke:white;stroke-width:2"/>
      <line x1="587" y1="649" x2="595" y2="649" style="stroke:white;stroke-width:2"/>
      <line x1="595" y1="649" x2="603" y2="649" style="stroke:white;stroke-width:2"/>
      <line x1="603" y1="649" x2="611" y2="649" style="stroke:white;stroke-width:2"/>
      <line x1="611" y1="649" x2="619" y2="649" style="stroke:white;stroke-width:2"/>
      <line x1="619" y1="649" x2="627" y2="649" style="stroke:white;stroke-width:2"/>
      <line x1="627" y1="649" x2="635" y2="649" style="stroke:white;stroke-width:2"/>
      <line x1="635" y1="649" x2="643" y2="649" style="stroke:white;stroke-width:2"/>
      <line x1="643" y1="649" x2="650" y2="649" style="stroke:white;stroke-width:2"/>
      <line x1="650" y1="649" x2="658" y2="649" style="stroke:white;stroke-width:2"/>
      <line x1="658" y1="649" x2="666" y2="649" style="stroke:white;stroke-width:2"/>
      <line x1="666" y1="649" x2="674" y2="649" style="stroke:white;stroke-width:2"/>
      <line x1="674" y1="649" x2="682" y2="649" style="stroke:white;stroke-width:2"/>
      <line x1="682" y1="649" x2="690" y2="649" style="stroke:white;stroke-width:2"/>
      <line x1="690" y1="649" x2="698" y2="649" style="stroke:white;stroke-width:2"/>
      <line x1="698" y1="649" x2="706" y2="817" style="stroke:white;stroke-width:2"/>
      <line x1="706" y1="817" x2="713" y2="819" style="stroke:white;stroke-width:2"/>
      <line x1="713" y1="819" x2="721" y2="845" style="stroke:white;stroke-width:2"/>
      <line x1="721" y1="845" x2="729" y2="845" style="stroke:white;stroke-width:2"/>
      <line x1="729" y1="845" x2="737" y2="845" style="stroke:white;stroke-width:2"/>
      <line x1="737" y1="845" x2="745" y2="845" style="stroke:white;stroke-width:2"/>
      <line x1="745" y1="845" x2="753" y2="845" style="stroke:white;stroke-width:2"/>
      <line x1="753" y1="845" x2="761" y2="845" style="stroke:white;stroke-width:2"/>
      <line x1="761" y1="845" x2="768" y2="845" style="stroke:white;stroke-width:2"/>
      <line x1="768" y1="845" x2="776" y2="845" style="stroke:white;stroke-width:2"/>
      <line x1="776" y1="845" x2="784" y2="845" style="stroke:white;stroke-width:2"/>
      <line x1="784" y1="845" x2="792" y2="845" style="stroke:white;stroke-width:2"/>
      <line x1="792" y1="845" x2="800" y2="845" style="stroke:white;stroke-width:2"/>
      <line x1="800" y1="845" x2="808" y2="845" style="stroke:white;stroke-width:2"/>
      <line x1="808" y1="845" x2="816" y2="845" style="stroke:white;stroke-width:2"/>
      <line x1="816" y1="845" x2="824" y2="845" style="stroke:white;stroke-width:2"/>
      <line x1="824" y1="845" x2="831" y2="845" style="stroke:white;stroke-width:2"/>
      <line x1="831" y1="845" x2="839" y2="845" style="stroke:white;stroke-width:2"/>
      <line x1="839" y1="845" x2="847" y2="845" style="stroke:white;stroke-width:2"/>
      <line x1="847" y1="845" x2="855" y2="845" style="stroke:white;stroke-width:2"/>
      <line x1="855" y1="845" x2="863" y2="845" style="stroke:white;stroke-width:2"/>
      <line x1="863" y1="845" x2="871" y2="845" style="stroke:white;stroke-width:2"/>
      <line x1="871" y1="845" x2="879" y2="845" style="stroke:white;stroke-width:2"/>
      <line x1="879" y1="845" x2="887" y2="845" style="stroke:white;stroke-width:2"/>
      <line x1="887" y1="845" x2="894" y2="845" style="stroke:white;stroke-width:2"/>
      <line x1="894" y1="845" x2="902" y2="845" style="stroke:white;stroke-width:2"/>
      <line x1="902" y1="845" x2="910" y2="845" style="stroke:white;stroke-width:2"/>
      <line x1="910" y1="845" x2="918" y2="845" style="stroke:white;stroke-width:2"/>
      <line x1="918" y1="845" x2="926" y2="845" style="stroke:white;stroke-width:2"/>
      <line x1="926" y1="845" x2="934" y2="845" style="stroke:white;stroke-width:2"/>
      <line x1="934" y1="845" x2="942" y2="900" style="stroke:white;stroke-width:2"/>
      <line x1="942" y1="900" x2="950" y2="900" style="stroke:white;stroke-width:2"/>

    <mask id="plot_area">
      <rect x="100" y="100" width="850" height="800" fill="white"/>
    </mask>
    <line x1="100" y1="95.00978058639927" x2="950" y2="968.6502938270221" style="stroke:white;stroke-width:2" mask="url(#plot_area)"/>
</svg>
