<svg height="1000" width="1000" xmlns="http://www.w3.org/2000/svg" font-family="Arial" style="background-color: #333333">
  <text x="500" y="50" fill="white" dominant-baseline="middle" text-anchor="middle" font-size="40">
    Legacy JS Lines of Code
  </text>

    <line x1="100" y1="900" x2="950" y2="900" style="stroke:white;stroke-width:2"/>

      <text x="100.0" y="925.0" fill="white" dominant-baseline="middle" text-anchor="middle">
        2024-08-26
      </text>
      <text x="270.0" y="925.0" fill="white" dominant-baseline="middle" text-anchor="middle">
        2024-09-16
      </text>
      <text x="440.0" y="925.0" fill="white" dominant-baseline="middle" text-anchor="middle">
        2024-10-08
      </text>
      <text x="610.0" y="925.0" fill="white" dominant-baseline="middle" text-anchor="middle">
        2024-10-29
      </text>
      <text x="780.0" y="925.0" fill="white" dominant-baseline="middle" text-anchor="middle">
        2024-11-20
      </text>
      <text x="950.0" y="925.0" fill="white" dominant-baseline="middle" text-anchor="middle">
        2024-12-12
      </text>
    <line x1="100" y1="100" x2="100" y2="900" style="stroke:white;stroke-width:2"/>

      <text x="75.0" y="100.0" fill="white" dominant-baseline="middle" text-anchor="middle">
        1187
      </text>
      <text x="75.0" y="188.0" fill="white" dominant-baseline="middle" text-anchor="middle">
        1391
      </text>
      <text x="75.0" y="277.0" fill="white" dominant-baseline="middle" text-anchor="middle">
        1596
      </text>
      <text x="75.0" y="366.0" fill="white" dominant-baseline="middle" text-anchor="middle">
        1800
      </text>
      <text x="75.0" y="455.0" fill="white" dominant-baseline="middle" text-anchor="middle">
        2005
      </text>
      <text x="75.0" y="544.0" fill="white" dominant-baseline="middle" text-anchor="middle">
        2209
      </text>
      <text x="75.0" y="633.0" fill="white" dominant-baseline="middle" text-anchor="middle">
        2414
      </text>
      <text x="75.0" y="722.0" fill="white" dominant-baseline="middle" text-anchor="middle">
        2618
      </text>
      <text x="75.0" y="811.0" fill="white" dominant-baseline="middle" text-anchor="middle">
        2823
      </text>
      <text x="75.0" y="900.0" fill="white" dominant-baseline="middle" text-anchor="middle">
        3028
      </text>

    <text x="525.0" y="975.0" fill="white" dominant-baseline="middle" text-anchor="middle" font-size="30">
      Date
    </text>

    <text x="25.0" y="500.0" fill="white" dominant-baseline="middle" text-anchor="middle" font-size="30" transform="rotate(-90 25.0 500.0)">
      Lines of Code
    </text>

      <line x1="100.0" y1="900" x2="100.0" y2="910" style="stroke:white;stroke-width:2"/>
      <line x1="100.0" y1="100" x2="100.0" y2="900" style="stroke:white;stroke-width:1"/>
      <line x1="270.0" y1="900" x2="270.0" y2="910" style="stroke:white;stroke-width:2"/>
      <line x1="270.0" y1="100" x2="270.0" y2="900" style="stroke:white;stroke-width:1"/>
      <line x1="440.0" y1="900" x2="440.0" y2="910" style="stroke:white;stroke-width:2"/>
      <line x1="440.0" y1="100" x2="440.0" y2="900" style="stroke:white;stroke-width:1"/>
      <line x1="610.0" y1="900" x2="610.0" y2="910" style="stroke:white;stroke-width:2"/>
      <line x1="610.0" y1="100" x2="610.0" y2="900" style="stroke:white;stroke-width:1"/>
      <line x1="780.0" y1="900" x2="780.0" y2="910" style="stroke:white;stroke-width:2"/>
      <line x1="780.0" y1="100" x2="780.0" y2="900" style="stroke:white;stroke-width:1"/>
      <line x1="950.0" y1="900" x2="950.0" y2="910" style="stroke:white;stroke-width:2"/>
      <line x1="950.0" y1="100" x2="950.0" y2="900" style="stroke:white;stroke-width:1"/>

      <line x1="100" y1="100.0" x2="90" y2="100.0" style="stroke:white;stroke-width:2"/>
      <line x1="100" y1="100.0" x2="950" y2="100.0" style="stroke:white;stroke-width:1"/>
      <line x1="100" y1="188.0" x2="90" y2="188.0" style="stroke:white;stroke-width:2"/>
      <line x1="100" y1="188.0" x2="950" y2="188.0" style="stroke:white;stroke-width:1"/>
      <line x1="100" y1="277.0" x2="90" y2="277.0" style="stroke:white;stroke-width:2"/>
      <line x1="100" y1="277.0" x2="950" y2="277.0" style="stroke:white;stroke-width:1"/>
      <line x1="100" y1="366.0" x2="90" y2="366.0" style="stroke:white;stroke-width:2"/>
      <line x1="100" y1="366.0" x2="950" y2="366.0" style="stroke:white;stroke-width:1"/>
      <line x1="100" y1="455.0" x2="90" y2="455.0" style="stroke:white;stroke-width:2"/>
      <line x1="100" y1="455.0" x2="950" y2="455.0" style="stroke:white;stroke-width:1"/>
      <line x1="100" y1="544.0" x2="90" y2="544.0" style="stroke:white;stroke-width:2"/>
      <line x1="100" y1="544.0" x2="950" y2="544.0" style="stroke:white;stroke-width:1"/>
      <line x1="100" y1="633.0" x2="90" y2="633.0" style="stroke:white;stroke-width:2"/>
      <line x1="100" y1="633.0" x2="950" y2="633.0" style="stroke:white;stroke-width:1"/>
      <line x1="100" y1="722.0" x2="90" y2="722.0" style="stroke:white;stroke-width:2"/>
      <line x1="100" y1="722.0" x2="950" y2="722.0" style="stroke:white;stroke-width:1"/>
      <line x1="100" y1="811.0" x2="90" y2="811.0" style="stroke:white;stroke-width:2"/>
      <line x1="100" y1="811.0" x2="950" y2="811.0" style="stroke:white;stroke-width:1"/>
      <line x1="100" y1="900.0" x2="90" y2="900.0" style="stroke:white;stroke-width:2"/>
      <line x1="100" y1="900.0" x2="950" y2="900.0" style="stroke:white;stroke-width:1"/>

    <circle cx="950" cy="900" r="3" fill="white"/>
    <circle cx="942" cy="900" r="3" fill="white"/>
    <circle cx="934" cy="845" r="3" fill="white"/>
    <circle cx="926" cy="845" r="3" fill="white"/>
    <circle cx="918" cy="845" r="3" fill="white"/>
    <circle cx="910" cy="845" r="3" fill="white"/>
    <circle cx="902" cy="845" r="3" fill="white"/>
    <circle cx="894" cy="845" r="3" fill="white"/>
    <circle cx="887" cy="845" r="3" fill="white"/>
    <circle cx="879" cy="845" r="3" fill="white"/>
    <circle cx="871" cy="845" r="3" fill="white"/>
    <circle cx="863" cy="845" r="3" fill="white"/>
    <circle cx="855" cy="845" r="3" fill="white"/>
    <circle cx="847" cy="845" r="3" fill="white"/>
    <circle cx="839" cy="845" r="3" fill="white"/>
    <circle cx="831" cy="845" r="3" fill="white"/>
    <circle cx="824" cy="845" r="3" fill="white"/>
    <circle cx="816" cy="845" r="3" fill="white"/>
    <circle cx="808" cy="845" r="3" fill="white"/>
    <circle cx="800" cy="845" r="3" fill="white"/>
    <circle cx="792" cy="845" r="3" fill="white"/>
    <circle cx="784" cy="845" r="3" fill="white"/>
    <circle cx="776" cy="845" r="3" fill="white"/>
    <circle cx="768" cy="845" r="3" fill="white"/>
    <circle cx="761" cy="845" r="3" fill="white"/>
    <circle cx="753" cy="845" r="3" fill="white"/>
    <circle cx="745" cy="845" r="3" fill="white"/>
    <circle cx="737" cy="845" r="3" fill="white"/>
    <circle cx="729" cy="845" r="3" fill="white"/>
    <circle cx="721" cy="845" r="3" fill="white"/>
    <circle cx="713" cy="819" r="3" fill="white"/>
    <circle cx="706" cy="817" r="3" fill="white"/>
    <circle cx="698" cy="649" r="3" fill="white"/>
    <circle cx="690" cy="649" r="3" fill="white"/>
    <circle cx="682" cy="649" r="3" fill="white"/>
    <circle cx="674" cy="649" r="3" fill="white"/>
    <circle cx="666" cy="649" r="3" fill="white"/>
    <circle cx="658" cy="649" r="3" fill="white"/>
    <circle cx="650" cy="649" r="3" fill="white"/>
    <circle cx="643" cy="649" r="3" fill="white"/>
    <circle cx="635" cy="649" r="3" fill="white"/>
    <circle cx="627" cy="649" r="3" fill="white"/>
    <circle cx="619" cy="649" r="3" fill="white"/>
    <circle cx="611" cy="649" r="3" fill="white"/>
    <circle cx="603" cy="649" r="3" fill="white"/>
    <circle cx="595" cy="649" r="3" fill="white"/>
    <circle cx="587" cy="649" r="3" fill="white"/>
    <circle cx="580" cy="649" r="3" fill="white"/>
    <circle cx="572" cy="649" r="3" fill="white"/>
    <circle cx="564" cy="608" r="3" fill="white"/>
    <circle cx="556" cy="592" r="3" fill="white"/>
    <circle cx="548" cy="592" r="3" fill="white"/>
    <circle cx="540" cy="596" r="3" fill="white"/>
    <circle cx="532" cy="596" r="3" fill="white"/>
    <circle cx="525" cy="596" r="3" fill="white"/>
    <circle cx="517" cy="596" r="3" fill="white"/>
    <circle cx="509" cy="568" r="3" fill="white"/>
    <circle cx="501" cy="568" r="3" fill="white"/>
    <circle cx="493" cy="523" r="3" fill="white"/>
    <circle cx="485" cy="523" r="3" fill="white"/>
    <circle cx="477" cy="523" r="3" fill="white"/>
    <circle cx="469" cy="523" r="3" fill="white"/>
    <circle cx="462" cy="523" r="3" fill="white"/>
    <circle cx="454" cy="523" r="3" fill="white"/>
    <circle cx="446" cy="491" r="3" fill="white"/>
    <circle cx="438" cy="491" r="3" fill="white"/>
    <circle cx="430" cy="491" r="3" fill="white"/>
    <circle cx="422" cy="360" r="3" fill="white"/>
    <circle cx="414" cy="360" r="3" fill="white"/>
    <circle cx="406" cy="360" r="3" fill="white"/>
    <circle cx="399" cy="360" r="3" fill="white"/>
    <circle cx="391" cy="360" r="3" fill="white"/>
    <circle cx="383" cy="300" r="3" fill="white"/>
    <circle cx="375" cy="300" r="3" fill="white"/>
    <circle cx="367" cy="300" r="3" fill="white"/>
    <circle cx="359" cy="300" r="3" fill="white"/>
    <circle cx="351" cy="300" r="3" fill="white"/>
    <circle cx="343" cy="300" r="3" fill="white"/>
    <circle cx="336" cy="300" r="3" fill="white"/>
    <circle cx="328" cy="232" r="3" fill="white"/>
    <circle cx="320" cy="232" r="3" fill="white"/>
    <circle cx="312" cy="232" r="3" fill="white"/>
    <circle cx="304" cy="232" r="3" fill="white"/>
    <circle cx="296" cy="232" r="3" fill="white"/>
    <circle cx="288" cy="232" r="3" fill="white"/>
    <circle cx="281" cy="232" r="3" fill="white"/>
    <circle cx="273" cy="232" r="3" fill="white"/>
    <circle cx="265" cy="232" r="3" fill="white"/>
    <circle cx="257" cy="232" r="3" fill="white"/>
    <circle cx="249" cy="232" r="3" fill="white"/>
    <circle cx="241" cy="232" r="3" fill="white"/>
    <circle cx="233" cy="232" r="3" fill="white"/>
    <circle cx="225" cy="232" r="3" fill="white"/>
    <circle cx="218" cy="232" r="3" fill="white"/>
    <circle cx="210" cy="232" r="3" fill="white"/>
    <circle cx="202" cy="232" r="3" fill="white"/>
    <circle cx="194" cy="232" r="3" fill="white"/>
    <circle cx="186" cy="232" r="3" fill="white"/>
    <circle cx="178" cy="232" r="3" fill="white"/>
    <circle cx="170" cy="206" r="3" fill="white"/>
    <circle cx="162" cy="131" r="3" fill="white"/>
    <circle cx="155" cy="131" r="3" fill="white"/>
    <circle cx="147" cy="131" r="3" fill="white"/>
    <circle cx="139" cy="131" r="3" fill="white"/>
    <circle cx="131" cy="131" r="3" fill="white"/>
    <circle cx="123" cy="131" r="3" fill="white"/>
    <circle cx="115" cy="131" r="3" fill="white"/>
    <circle cx="107" cy="100" r="3" fill="white"/>
    <circle cx="100" cy="100" r="3" fill="white"/>

    <mask id="mask">
      <rect x="100" y="100" width="850" height="800" fill="white"/>
    </mask>
      <line x1="100" y1="95.00978058639927" x2="950" y2="968.6502938270221" style="stroke:white;stroke-width:2" mask="url(#mask)"/>
</svg>
