<svg height="1000" width="1000" xmlns="http://www.w3.org/2000/svg" font-family="Arial" style="background-color: #333333">
  <text x="500" y="100" fill="white" dominant-baseline="middle" text-anchor="middle" font-size="40">
    Legacy JS lines
  </text>

  <text x="500" y="950" fill="white" dominant-baseline="middle" text-anchor="middle" font-size="30">
    Date
  </text>

  <text x="50" y="500" fill="white" dominant-baseline="middle" text-anchor="middle" font-size="30" transform="rotate(-90 50,500)">
    Lines
  </text>

  <line x1="120" y1="890" x2="950" y2="890" style="stroke:white;stroke-width:2"/>
  <line x1="120" y1="890" x2="120" y2="150" style="stroke:white;stroke-width:2"/>

    <text x="120" y="915" fill="white" dominant-baseline="middle" text-anchor="middle">
      2024-08-26
    </text>
    <text x="203" y="915" fill="white" dominant-baseline="middle" text-anchor="middle">
      2024-09-05
    </text>
    <text x="286" y="915" fill="white" dominant-baseline="middle" text-anchor="middle">
      2024-09-16
    </text>
    <text x="369" y="915" fill="white" dominant-baseline="middle" text-anchor="middle">
      2024-09-27
    </text>
    <text x="452" y="915" fill="white" dominant-baseline="middle" text-anchor="middle">
      2024-10-08
    </text>
    <text x="535" y="915" fill="white" dominant-baseline="middle" text-anchor="middle">
      2024-10-19
    </text>
    <text x="618" y="915" fill="white" dominant-baseline="middle" text-anchor="middle">
      2024-10-29
    </text>
    <text x="701" y="915" fill="white" dominant-baseline="middle" text-anchor="middle">
      2024-11-09
    </text>
    <text x="784" y="915" fill="white" dominant-baseline="middle" text-anchor="middle">
      2024-11-20
    </text>
    <text x="867" y="915" fill="white" dominant-baseline="middle" text-anchor="middle">
      2024-12-01
    </text>
    <text x="950" y="915" fill="white" dominant-baseline="middle" text-anchor="middle">
      2024-12-12
    </text>
    <text x="95" y="150" fill="white" dominant-baseline="middle" text-anchor="middle">
      1187
    </text>
    <text x="95" y="224" fill="white" dominant-baseline="middle" text-anchor="middle">
      1371
    </text>
    <text x="95" y="298" fill="white" dominant-baseline="middle" text-anchor="middle">
      1555
    </text>
    <text x="95" y="372" fill="white" dominant-baseline="middle" text-anchor="middle">
      1739
    </text>
    <text x="95" y="446" fill="white" dominant-baseline="middle" text-anchor="middle">
      1923
    </text>
    <text x="95" y="520" fill="white" dominant-baseline="middle" text-anchor="middle">
      2107
    </text>
    <text x="95" y="594" fill="white" dominant-baseline="middle" text-anchor="middle">
      2291
    </text>
    <text x="95" y="668" fill="white" dominant-baseline="middle" text-anchor="middle">
      2475
    </text>
    <text x="95" y="742" fill="white" dominant-baseline="middle" text-anchor="middle">
      2659
    </text>
    <text x="95" y="816" fill="white" dominant-baseline="middle" text-anchor="middle">
      2843
    </text>
    <text x="95" y="890" fill="white" dominant-baseline="middle" text-anchor="middle">
      3028
    </text>

    <circle cx="950" cy="890" r="3" fill="white"/>
    <circle cx="942" cy="890" r="3" fill="white"/>
    <circle cx="934" cy="839" r="3" fill="white"/>
    <circle cx="926" cy="839" r="3" fill="white"/>
    <circle cx="919" cy="839" r="3" fill="white"/>
    <circle cx="911" cy="839" r="3" fill="white"/>
    <circle cx="903" cy="839" r="3" fill="white"/>
    <circle cx="896" cy="839" r="3" fill="white"/>
    <circle cx="888" cy="839" r="3" fill="white"/>
    <circle cx="880" cy="839" r="3" fill="white"/>
    <circle cx="873" cy="839" r="3" fill="white"/>
    <circle cx="865" cy="839" r="3" fill="white"/>
    <circle cx="857" cy="839" r="3" fill="white"/>
    <circle cx="850" cy="839" r="3" fill="white"/>
    <circle cx="842" cy="839" r="3" fill="white"/>
    <circle cx="834" cy="839" r="3" fill="white"/>
    <circle cx="827" cy="839" r="3" fill="white"/>
    <circle cx="819" cy="839" r="3" fill="white"/>
    <circle cx="811" cy="839" r="3" fill="white"/>
    <circle cx="803" cy="839" r="3" fill="white"/>
    <circle cx="796" cy="839" r="3" fill="white"/>
    <circle cx="788" cy="839" r="3" fill="white"/>
    <circle cx="780" cy="839" r="3" fill="white"/>
    <circle cx="773" cy="839" r="3" fill="white"/>
    <circle cx="765" cy="839" r="3" fill="white"/>
    <circle cx="757" cy="839" r="3" fill="white"/>
    <circle cx="750" cy="839" r="3" fill="white"/>
    <circle cx="742" cy="839" r="3" fill="white"/>
    <circle cx="734" cy="839" r="3" fill="white"/>
    <circle cx="727" cy="839" r="3" fill="white"/>
    <circle cx="719" cy="815" r="3" fill="white"/>
    <circle cx="711" cy="813" r="3" fill="white"/>
    <circle cx="704" cy="658" r="3" fill="white"/>
    <circle cx="696" cy="658" r="3" fill="white"/>
    <circle cx="688" cy="658" r="3" fill="white"/>
    <circle cx="681" cy="658" r="3" fill="white"/>
    <circle cx="673" cy="658" r="3" fill="white"/>
    <circle cx="665" cy="658" r="3" fill="white"/>
    <circle cx="657" cy="658" r="3" fill="white"/>
    <circle cx="650" cy="658" r="3" fill="white"/>
    <circle cx="642" cy="658" r="3" fill="white"/>
    <circle cx="634" cy="658" r="3" fill="white"/>
    <circle cx="627" cy="658" r="3" fill="white"/>
    <circle cx="619" cy="658" r="3" fill="white"/>
    <circle cx="611" cy="658" r="3" fill="white"/>
    <circle cx="604" cy="658" r="3" fill="white"/>
    <circle cx="596" cy="658" r="3" fill="white"/>
    <circle cx="588" cy="658" r="3" fill="white"/>
    <circle cx="581" cy="658" r="3" fill="white"/>
    <circle cx="573" cy="620" r="3" fill="white"/>
    <circle cx="565" cy="605" r="3" fill="white"/>
    <circle cx="558" cy="605" r="3" fill="white"/>
    <circle cx="550" cy="609" r="3" fill="white"/>
    <circle cx="542" cy="609" r="3" fill="white"/>
    <circle cx="535" cy="609" r="3" fill="white"/>
    <circle cx="527" cy="609" r="3" fill="white"/>
    <circle cx="519" cy="583" r="3" fill="white"/>
    <circle cx="511" cy="583" r="3" fill="white"/>
    <circle cx="504" cy="541" r="3" fill="white"/>
    <circle cx="496" cy="541" r="3" fill="white"/>
    <circle cx="488" cy="541" r="3" fill="white"/>
    <circle cx="481" cy="541" r="3" fill="white"/>
    <circle cx="473" cy="541" r="3" fill="white"/>
    <circle cx="465" cy="541" r="3" fill="white"/>
    <circle cx="458" cy="511" r="3" fill="white"/>
    <circle cx="450" cy="511" r="3" fill="white"/>
    <circle cx="442" cy="511" r="3" fill="white"/>
    <circle cx="435" cy="390" r="3" fill="white"/>
    <circle cx="427" cy="390" r="3" fill="white"/>
    <circle cx="419" cy="390" r="3" fill="white"/>
    <circle cx="412" cy="390" r="3" fill="white"/>
    <circle cx="404" cy="390" r="3" fill="white"/>
    <circle cx="396" cy="335" r="3" fill="white"/>
    <circle cx="388" cy="335" r="3" fill="white"/>
    <circle cx="381" cy="335" r="3" fill="white"/>
    <circle cx="373" cy="335" r="3" fill="white"/>
    <circle cx="365" cy="335" r="3" fill="white"/>
    <circle cx="358" cy="335" r="3" fill="white"/>
    <circle cx="350" cy="335" r="3" fill="white"/>
    <circle cx="342" cy="272" r="3" fill="white"/>
    <circle cx="335" cy="272" r="3" fill="white"/>
    <circle cx="327" cy="272" r="3" fill="white"/>
    <circle cx="319" cy="272" r="3" fill="white"/>
    <circle cx="312" cy="272" r="3" fill="white"/>
    <circle cx="304" cy="272" r="3" fill="white"/>
    <circle cx="296" cy="272" r="3" fill="white"/>
    <circle cx="289" cy="272" r="3" fill="white"/>
    <circle cx="281" cy="272" r="3" fill="white"/>
    <circle cx="273" cy="272" r="3" fill="white"/>
    <circle cx="266" cy="272" r="3" fill="white"/>
    <circle cx="258" cy="272" r="3" fill="white"/>
    <circle cx="250" cy="272" r="3" fill="white"/>
    <circle cx="242" cy="272" r="3" fill="white"/>
    <circle cx="235" cy="272" r="3" fill="white"/>
    <circle cx="227" cy="272" r="3" fill="white"/>
    <circle cx="219" cy="272" r="3" fill="white"/>
    <circle cx="212" cy="272" r="3" fill="white"/>
    <circle cx="204" cy="272" r="3" fill="white"/>
    <circle cx="196" cy="272" r="3" fill="white"/>
    <circle cx="189" cy="248" r="3" fill="white"/>
    <circle cx="181" cy="178" r="3" fill="white"/>
    <circle cx="173" cy="178" r="3" fill="white"/>
    <circle cx="166" cy="178" r="3" fill="white"/>
    <circle cx="158" cy="178" r="3" fill="white"/>
    <circle cx="150" cy="178" r="3" fill="white"/>
    <circle cx="143" cy="178" r="3" fill="white"/>
    <circle cx="135" cy="178" r="3" fill="white"/>
    <circle cx="127" cy="150" r="3" fill="white"/>
    <circle cx="120" cy="150" r="3" fill="white"/>
  </svg>
