<svg height="1000" width="1000" xmlns="http://www.w3.org/2000/svg" font-family="Arial" style="background-color: #333333">
  <text x="500" y="50" fill="white" dominant-baseline="middle" text-anchor="middle" font-size="40">
    Legacy JS lines
  </text>

  <text x="500" y="975" fill="white" dominant-baseline="middle" text-anchor="middle" font-size="30">
    Date
  </text>

  <text x="25" y="500" fill="white" dominant-baseline="middle" text-anchor="middle" font-size="30" transform="rotate(-90 25,500)">
    Lines
  </text>

  <line x1="100" y1="900" x2="950" y2="900" style="stroke:white;stroke-width:2"/>
  <line x1="100" y1="900" x2="100" y2="100" style="stroke:white;stroke-width:2"/>

    <text x="100" y="925" fill="white" dominant-baseline="middle" text-anchor="middle">
      2024-08-26
    </text>
    <text x="185" y="925" fill="white" dominant-baseline="middle" text-anchor="middle">
      2024-09-05
    </text>
    <text x="270" y="925" fill="white" dominant-baseline="middle" text-anchor="middle">
      2024-09-16
    </text>
    <text x="355" y="925" fill="white" dominant-baseline="middle" text-anchor="middle">
      2024-09-27
    </text>
    <text x="440" y="925" fill="white" dominant-baseline="middle" text-anchor="middle">
      2024-10-08
    </text>
    <text x="525" y="925" fill="white" dominant-baseline="middle" text-anchor="middle">
      2024-10-19
    </text>
    <text x="610" y="925" fill="white" dominant-baseline="middle" text-anchor="middle">
      2024-10-29
    </text>
    <text x="695" y="925" fill="white" dominant-baseline="middle" text-anchor="middle">
      2024-11-09
    </text>
    <text x="780" y="925" fill="white" dominant-baseline="middle" text-anchor="middle">
      2024-11-20
    </text>
    <text x="865" y="925" fill="white" dominant-baseline="middle" text-anchor="middle">
      2024-12-01
    </text>
    <text x="950" y="925" fill="white" dominant-baseline="middle" text-anchor="middle">
      2024-12-12
    </text>
    <text x="75" y="100" fill="white" dominant-baseline="middle" text-anchor="middle">
      1187
    </text>
    <text x="75" y="180" fill="white" dominant-baseline="middle" text-anchor="middle">
      1371
    </text>
    <text x="75" y="260" fill="white" dominant-baseline="middle" text-anchor="middle">
      1555
    </text>
    <text x="75" y="340" fill="white" dominant-baseline="middle" text-anchor="middle">
      1739
    </text>
    <text x="75" y="420" fill="white" dominant-baseline="middle" text-anchor="middle">
      1923
    </text>
    <text x="75" y="500" fill="white" dominant-baseline="middle" text-anchor="middle">
      2107
    </text>
    <text x="75" y="580" fill="white" dominant-baseline="middle" text-anchor="middle">
      2291
    </text>
    <text x="75" y="660" fill="white" dominant-baseline="middle" text-anchor="middle">
      2475
    </text>
    <text x="75" y="740" fill="white" dominant-baseline="middle" text-anchor="middle">
      2659
    </text>
    <text x="75" y="820" fill="white" dominant-baseline="middle" text-anchor="middle">
      2843
    </text>
    <text x="75" y="900" fill="white" dominant-baseline="middle" text-anchor="middle">
      3028
    </text>

    <line x1="100" y1="900" x2="100" y2="910" style="stroke:white;stroke-width:2"/>
    <line x1="100" y1="100" x2="100" y2="900" style="stroke:white;stroke-width:1"/>
    <line x1="185" y1="900" x2="185" y2="910" style="stroke:white;stroke-width:2"/>
    <line x1="185" y1="100" x2="185" y2="900" style="stroke:white;stroke-width:1"/>
    <line x1="270" y1="900" x2="270" y2="910" style="stroke:white;stroke-width:2"/>
    <line x1="270" y1="100" x2="270" y2="900" style="stroke:white;stroke-width:1"/>
    <line x1="355" y1="900" x2="355" y2="910" style="stroke:white;stroke-width:2"/>
    <line x1="355" y1="100" x2="355" y2="900" style="stroke:white;stroke-width:1"/>
    <line x1="440" y1="900" x2="440" y2="910" style="stroke:white;stroke-width:2"/>
    <line x1="440" y1="100" x2="440" y2="900" style="stroke:white;stroke-width:1"/>
    <line x1="525" y1="900" x2="525" y2="910" style="stroke:white;stroke-width:2"/>
    <line x1="525" y1="100" x2="525" y2="900" style="stroke:white;stroke-width:1"/>
    <line x1="610" y1="900" x2="610" y2="910" style="stroke:white;stroke-width:2"/>
    <line x1="610" y1="100" x2="610" y2="900" style="stroke:white;stroke-width:1"/>
    <line x1="695" y1="900" x2="695" y2="910" style="stroke:white;stroke-width:2"/>
    <line x1="695" y1="100" x2="695" y2="900" style="stroke:white;stroke-width:1"/>
    <line x1="780" y1="900" x2="780" y2="910" style="stroke:white;stroke-width:2"/>
    <line x1="780" y1="100" x2="780" y2="900" style="stroke:white;stroke-width:1"/>
    <line x1="865" y1="900" x2="865" y2="910" style="stroke:white;stroke-width:2"/>
    <line x1="865" y1="100" x2="865" y2="900" style="stroke:white;stroke-width:1"/>
    <line x1="950" y1="900" x2="950" y2="910" style="stroke:white;stroke-width:2"/>
    <line x1="950" y1="100" x2="950" y2="900" style="stroke:white;stroke-width:1"/>

    <line x1="100" y1="100" x2="90" y2="100" style="stroke:white;stroke-width:2"/>
    <line x1="100" y1="100" x2="950" y2="100" style="stroke:white;stroke-width:1"/>
    <line x1="100" y1="180" x2="90" y2="180" style="stroke:white;stroke-width:2"/>
    <line x1="100" y1="180" x2="950" y2="180" style="stroke:white;stroke-width:1"/>
    <line x1="100" y1="260" x2="90" y2="260" style="stroke:white;stroke-width:2"/>
    <line x1="100" y1="260" x2="950" y2="260" style="stroke:white;stroke-width:1"/>
    <line x1="100" y1="340" x2="90" y2="340" style="stroke:white;stroke-width:2"/>
    <line x1="100" y1="340" x2="950" y2="340" style="stroke:white;stroke-width:1"/>
    <line x1="100" y1="420" x2="90" y2="420" style="stroke:white;stroke-width:2"/>
    <line x1="100" y1="420" x2="950" y2="420" style="stroke:white;stroke-width:1"/>
    <line x1="100" y1="500" x2="90" y2="500" style="stroke:white;stroke-width:2"/>
    <line x1="100" y1="500" x2="950" y2="500" style="stroke:white;stroke-width:1"/>
    <line x1="100" y1="580" x2="90" y2="580" style="stroke:white;stroke-width:2"/>
    <line x1="100" y1="580" x2="950" y2="580" style="stroke:white;stroke-width:1"/>
    <line x1="100" y1="660" x2="90" y2="660" style="stroke:white;stroke-width:2"/>
    <line x1="100" y1="660" x2="950" y2="660" style="stroke:white;stroke-width:1"/>
    <line x1="100" y1="740" x2="90" y2="740" style="stroke:white;stroke-width:2"/>
    <line x1="100" y1="740" x2="950" y2="740" style="stroke:white;stroke-width:1"/>
    <line x1="100" y1="820" x2="90" y2="820" style="stroke:white;stroke-width:2"/>
    <line x1="100" y1="820" x2="950" y2="820" style="stroke:white;stroke-width:1"/>
    <line x1="100" y1="900" x2="90" y2="900" style="stroke:white;stroke-width:2"/>
    <line x1="100" y1="900" x2="950" y2="900" style="stroke:white;stroke-width:1"/>

    <circle cx="950" cy="900" r="3" fill="white"/>
    <circle cx="942" cy="900" r="3" fill="white"/>
    <circle cx="934" cy="845" r="3" fill="white"/>
    <circle cx="926" cy="845" r="3" fill="white"/>
    <circle cx="918" cy="845" r="3" fill="white"/>
    <circle cx="910" cy="845" r="3" fill="white"/>
    <circle cx="902" cy="845" r="3" fill="white"/>
    <circle cx="894" cy="845" r="3" fill="white"/>
    <circle cx="887" cy="845" r="3" fill="white"/>
    <circle cx="879" cy="845" r="3" fill="white"/>
    <circle cx="871" cy="845" r="3" fill="white"/>
    <circle cx="863" cy="845" r="3" fill="white"/>
    <circle cx="855" cy="845" r="3" fill="white"/>
    <circle cx="847" cy="845" r="3" fill="white"/>
    <circle cx="839" cy="845" r="3" fill="white"/>
    <circle cx="831" cy="845" r="3" fill="white"/>
    <circle cx="824" cy="845" r="3" fill="white"/>
    <circle cx="816" cy="845" r="3" fill="white"/>
    <circle cx="808" cy="845" r="3" fill="white"/>
    <circle cx="800" cy="845" r="3" fill="white"/>
    <circle cx="792" cy="845" r="3" fill="white"/>
    <circle cx="784" cy="845" r="3" fill="white"/>
    <circle cx="776" cy="845" r="3" fill="white"/>
    <circle cx="768" cy="845" r="3" fill="white"/>
    <circle cx="761" cy="845" r="3" fill="white"/>
    <circle cx="753" cy="845" r="3" fill="white"/>
    <circle cx="745" cy="845" r="3" fill="white"/>
    <circle cx="737" cy="845" r="3" fill="white"/>
    <circle cx="729" cy="845" r="3" fill="white"/>
    <circle cx="721" cy="845" r="3" fill="white"/>
    <circle cx="713" cy="819" r="3" fill="white"/>
    <circle cx="706" cy="817" r="3" fill="white"/>
    <circle cx="698" cy="649" r="3" fill="white"/>
    <circle cx="690" cy="649" r="3" fill="white"/>
    <circle cx="682" cy="649" r="3" fill="white"/>
    <circle cx="674" cy="649" r="3" fill="white"/>
    <circle cx="666" cy="649" r="3" fill="white"/>
    <circle cx="658" cy="649" r="3" fill="white"/>
    <circle cx="650" cy="649" r="3" fill="white"/>
    <circle cx="643" cy="649" r="3" fill="white"/>
    <circle cx="635" cy="649" r="3" fill="white"/>
    <circle cx="627" cy="649" r="3" fill="white"/>
    <circle cx="619" cy="649" r="3" fill="white"/>
    <circle cx="611" cy="649" r="3" fill="white"/>
    <circle cx="603" cy="649" r="3" fill="white"/>
    <circle cx="595" cy="649" r="3" fill="white"/>
    <circle cx="587" cy="649" r="3" fill="white"/>
    <circle cx="580" cy="649" r="3" fill="white"/>
    <circle cx="572" cy="649" r="3" fill="white"/>
    <circle cx="564" cy="608" r="3" fill="white"/>
    <circle cx="556" cy="592" r="3" fill="white"/>
    <circle cx="548" cy="592" r="3" fill="white"/>
    <circle cx="540" cy="596" r="3" fill="white"/>
    <circle cx="532" cy="596" r="3" fill="white"/>
    <circle cx="525" cy="596" r="3" fill="white"/>
    <circle cx="517" cy="596" r="3" fill="white"/>
    <circle cx="509" cy="568" r="3" fill="white"/>
    <circle cx="501" cy="568" r="3" fill="white"/>
    <circle cx="493" cy="523" r="3" fill="white"/>
    <circle cx="485" cy="523" r="3" fill="white"/>
    <circle cx="477" cy="523" r="3" fill="white"/>
    <circle cx="469" cy="523" r="3" fill="white"/>
    <circle cx="462" cy="523" r="3" fill="white"/>
    <circle cx="454" cy="523" r="3" fill="white"/>
    <circle cx="446" cy="491" r="3" fill="white"/>
    <circle cx="438" cy="491" r="3" fill="white"/>
    <circle cx="430" cy="491" r="3" fill="white"/>
    <circle cx="422" cy="360" r="3" fill="white"/>
    <circle cx="414" cy="360" r="3" fill="white"/>
    <circle cx="406" cy="360" r="3" fill="white"/>
    <circle cx="399" cy="360" r="3" fill="white"/>
    <circle cx="391" cy="360" r="3" fill="white"/>
    <circle cx="383" cy="300" r="3" fill="white"/>
    <circle cx="375" cy="300" r="3" fill="white"/>
    <circle cx="367" cy="300" r="3" fill="white"/>
    <circle cx="359" cy="300" r="3" fill="white"/>
    <circle cx="351" cy="300" r="3" fill="white"/>
    <circle cx="343" cy="300" r="3" fill="white"/>
    <circle cx="336" cy="300" r="3" fill="white"/>
    <circle cx="328" cy="232" r="3" fill="white"/>
    <circle cx="320" cy="232" r="3" fill="white"/>
    <circle cx="312" cy="232" r="3" fill="white"/>
    <circle cx="304" cy="232" r="3" fill="white"/>
    <circle cx="296" cy="232" r="3" fill="white"/>
    <circle cx="288" cy="232" r="3" fill="white"/>
    <circle cx="281" cy="232" r="3" fill="white"/>
    <circle cx="273" cy="232" r="3" fill="white"/>
    <circle cx="265" cy="232" r="3" fill="white"/>
    <circle cx="257" cy="232" r="3" fill="white"/>
    <circle cx="249" cy="232" r="3" fill="white"/>
    <circle cx="241" cy="232" r="3" fill="white"/>
    <circle cx="233" cy="232" r="3" fill="white"/>
    <circle cx="225" cy="232" r="3" fill="white"/>
    <circle cx="218" cy="232" r="3" fill="white"/>
    <circle cx="210" cy="232" r="3" fill="white"/>
    <circle cx="202" cy="232" r="3" fill="white"/>
    <circle cx="194" cy="232" r="3" fill="white"/>
    <circle cx="186" cy="232" r="3" fill="white"/>
    <circle cx="178" cy="232" r="3" fill="white"/>
    <circle cx="170" cy="206" r="3" fill="white"/>
    <circle cx="162" cy="131" r="3" fill="white"/>
    <circle cx="155" cy="131" r="3" fill="white"/>
    <circle cx="147" cy="131" r="3" fill="white"/>
    <circle cx="139" cy="131" r="3" fill="white"/>
    <circle cx="131" cy="131" r="3" fill="white"/>
    <circle cx="123" cy="131" r="3" fill="white"/>
    <circle cx="115" cy="131" r="3" fill="white"/>
    <circle cx="107" cy="100" r="3" fill="white"/>
    <circle cx="100" cy="100" r="3" fill="white"/>
  </svg>
